<svg xmlns:dc="http://purl.org/dc/elements/1.1/" xmlns:cc="http://creativecommons.org/ns#" xmlns:rdf="http://www.w3.org/1999/02/22-rdf-syntax-ns#" xmlns:svg="http://www.w3.org/2000/svg" xmlns="http://www.w3.org/2000/svg" xmlns:xlink="http://www.w3.org/1999/xlink" id="svg76485" version="1.1" viewBox="294.31 348.23 435.38 71.55">   <metadata id="metadata76491" fill="#FFFFFF">     <rdf:rdf fill="#FFFFFF">       <cc:work rdf:about="" fill="#FFFFFF">         <dc:format fill="#FFFFFF">image/svg+xml</dc:format>         <dc:type rdf:resource="http://purl.org/dc/dcmitype/StillImage" fill="#FFFFFF"/>       </cc:work>     </rdf:rdf>   </metadata>   <defs id="defs76489"/>   <linearGradient spreadMethod="pad" y2="30%" x2="-10%" y1="120%" x1="30%" id="3d_gradient2-logo-43edc11b-ca5c-470e-abfc-968895d9b706" fill="#FFFFFF">     <stop id="stop76466" stop-opacity="1" stop-color="#ffffff" offset="0%" fill="#FFFFFF"/>     <stop id="stop76468" stop-opacity="1" stop-color="#000000" offset="100%" fill="#FFFFFF"/>   </linearGradient>   <linearGradient gradientTransform="rotate(-30)" spreadMethod="pad" y2="30%" x2="-10%" y1="120%" x1="30%" id="3d_gradient3-logo-43edc11b-ca5c-470e-abfc-968895d9b706" fill="#FFFFFF">     <stop id="stop76471" stop-opacity="1" stop-color="#ffffff" offset="0%" fill="#FFFFFF"/>     <stop id="stop76473" stop-opacity="1" stop-color="#cccccc" offset="50%" fill="#FFFFFF"/>     <stop id="stop76475" stop-opacity="1" stop-color="#000000" offset="100%" fill="#FFFFFF"/>   </linearGradient>   <g id="logo-group" fill="#FFFFFF">     <image xlink:href="" id="container" x="272" y="144" width="480" height="480" style="display: none;" transform="translate(0 0)" fill="#FFFFFF"/>     <g id="logo-center" transform="translate(-1.1368683772161603e-13 0)" fill="#FFFFFF">       <image xlink:href="" id="icon_container" style="display: none;" x="0" y="0" fill="#FFFFFF"/>       <g id="slogan" style="font-style:normal;font-weight:300;font-size:32px;line-height:1;font-family:'Open Sans';font-variant-ligatures:none;text-align:center;text-anchor:middle" transform="translate(0 0)" fill="#FFFFFF"/>       <g id="title" style="font-style:normal;font-weight:normal;font-size:72px;line-height:1;font-family:'Brandmark Sans 32 Color';font-variant-ligatures:normal;text-align:center;text-anchor:middle" transform="translate(0 0)" fill="#FFFFFF">         <g id="path76494" aria-label="^G" transform="translate(0 317.656) translate(294.31311440000013 30.574400000000004) scale(1.38) translate(-353.49088 51.12)" fill="#FFFFFF"><path class="c3" d="M74.47682,97.11752c0-16.84937,9.2168-25.92212,24.48206-25.92212 c13.17712,0,21.24182,6.62451,23.69006,18.00146h-3.52832c-2.16016-9.86475-8.64075-14.76123-20.16174-14.76123 c-13.68127,0-20.88184,7.05664-20.88184,22.68188c0,15.04932,6.69666,22.68201,20.88184,22.68201 c11.08899,0,17.92957-4.68042,20.08972-14.76123v-3.09631H98.67091v-3.24023h23.97803v23.61804h-3.60034v-8.56873 c-4.10437,6.12048-11.01697,9.28882-20.08972,9.28882C83.04543,123.03989,74.47682,113.31894,74.47682,97.11752z" transform="translate(279.01406 -122.3154)" stroke-width="0px" stroke-linejoin="miter" stroke-miterlimit="2" fill="#D78310" stroke="#D78310"/></g>         <g id="path76496" aria-label="^a" transform="translate(0 317.656) translate(366.0168794000001 45.4784) scale(1.38) translate(-405.45013 40.32)" fill="#FFFFFF"><path class="c3" d="M78.11256,102.51808c0-13.39307,7.56067-20.52173,20.30576-20.52173 c8.64075,0,14.04123,3.24023,16.77744,9.07275v-8.35278h3.60034v39.60352h-3.60034v-8.35278 c-2.80823,5.97656-8.35272,9.07275-16.77744,9.07275C85.24117,123.03981,78.11256,115.33522,78.11256,102.51808z M98.41832,119.43959c11.23297,0,16.77744-5.18445,16.77744-16.92151c0-11.30493-5.18445-16.92139-16.77744-16.92139 c-11.23297,0-16.70544,5.18433-16.70544,16.92139C81.71288,113.82301,86.89732,119.43959,98.41832,119.43959z" transform="translate(327.33757 -122.31635)" stroke-width="0px" stroke-linejoin="miter" stroke-miterlimit="2" fill="#D78310" stroke="#D78310"/></g>         <g id="path76498" aria-label="^t" transform="translate(0 317.656) translate(425.6934200000001 31.568000000000005) scale(1.38) translate(-448.694 50.4)" fill="#FFFFFF"><path class="c3" d="M89.9214,112.09499V85.95668h-6.62451v-3.24036h6.62451v-10.8009h3.6001v10.8009h20.30566v3.24036H93.5215 v26.13831c0,6.33643,2.95215,6.98462,6.55273,6.98462h13.75293v3.24023H99.93019 C93.5215,122.31984,89.9214,120.3036,89.9214,112.09499z" transform="translate(365.39711 -122.31542)" stroke-width="0px" stroke-linejoin="miter" stroke-miterlimit="2" fill="#D78310" stroke="#D78310"/></g>         <g id="path76500" aria-label="^e" transform="translate(0 317.656) translate(469.5515450000001 45.4784) scale(1.38) translate(-480.47525 40.32)" fill="#FFFFFF"><path class="c3" d="M78.29225,102.51808c0-13.39307,7.56067-20.52173,20.30579-20.52173s20.30579,7.12866,20.30579,20.52173 H81.89259c0,11.30493,5.18445,16.92151,16.70544,16.92151c9.79285,0,15.26526-3.96033,16.48938-12.6731h3.60034 c-1.51208,10.65686-8.78467,16.27332-20.08972,16.27332C85.42091,123.03981,78.29225,115.33522,78.29225,102.51808z M115.15944,99.27785c-1.00806-9.43286-6.40845-13.68115-16.5614-13.68115c-10.15283,0-15.55334,4.24829-16.5614,13.68115 H115.15944z" transform="translate(402.183 -122.31635)" stroke-width="0px" stroke-linejoin="miter" stroke-miterlimit="2" fill="#D78310" stroke="#D78310"/></g>         <g id="path76502" aria-label="F" transform="translate(0 317.656) translate(530.8752949999999 31.568000000000005) scale(1.38) translate(-524.91275 50.4)" fill="#FFFFFF"><path class="c1" d="M118.65211,71.91547v9.36081H89.12941v10.80093h29.52271v9.36081H89.12941v20.88181H78.32863V71.91547 H118.65211z" transform="translate(446.58412 -122.31547)" stroke-width="0px" stroke-linejoin="miter" stroke-miterlimit="2" fill="#1C153E" stroke="#1C153E"/></g>         <g id="path76504" aria-label="l" transform="translate(0 317.656) translate(592.0049756 31.568000000000005) scale(1.38) translate(-569.20962 50.4)" fill="#FFFFFF"><path class="c1" d="M103.60158,71.91549v50.4043H93.52052v-50.4043H103.60158z" transform="translate(475.6891 -122.31549)" stroke-width="0px" stroke-linejoin="miter" stroke-miterlimit="2" fill="#1C153E" stroke="#1C153E"/></g>         <g id="path76506" aria-label="u" transform="translate(0 317.656) translate(611.2171699999999 46.472) scale(1.38) translate(-583.1315 39.6)" fill="#FFFFFF"><path class="c1" d="M77.60841,104.31826V82.71639h10.08105v21.60187c0,5.54449,4.24805,9.00079,10.87305,9.00079 c6.4082,0,10.87256-3.16827,10.87256-9.00079V82.71639h10.08105v39.60339h-10.08105v-4.46436 c-2.37598,3.38428-6.4082,5.18445-13.03271,5.18445C85.45705,123.03988,77.60841,115.98324,77.60841,104.31826z" transform="translate(505.52309 -122.31639)" stroke-width="0px" stroke-linejoin="miter" stroke-miterlimit="2" fill="#1C153E" stroke="#1C153E"/></g>         <g id="path76508" aria-label="x" transform="translate(0 317.656) translate(673.9459394 46.472) scale(1.38) translate(-628.58713 39.6)" fill="#FFFFFF"><path class="c1" d="M109.00343,82.71639h11.16064l-10.5127,14.18524l-5.6167-7.56067L109.00343,82.71639z M109.65138,108.13461l10.5127,14.18518h-11.16064l-4.96875-6.62451L109.65138,108.13461z" transform="translate(548.81856 -122.31639)" stroke-width="0px" stroke-linejoin="miter" stroke-miterlimit="2" fill="#1C153E" stroke="#1C153E"/><polygon class="c3" points="90.9297,82.71639 105.61916,102.51809 90.9297,122.31979 79.76857,122.31979 94.45802,102.51809 79.76857,82.71639 " transform="translate(548.81856 -122.31639)" stroke-width="0px" stroke-linejoin="miter" stroke-miterlimit="2" fill="#D78310" stroke="#D78310"/></g>       </g>       <image xlink:href="" id="icon" style="display: none;" x="0" y="0" fill="#FFFFFF"/>     </g>   </g> </svg>